{"title":"The.Borgias.S02E07.HDTV.XviD-Atilla82","uid":7289078,"size":421000757,"categoryP":"video","categoryS":"tv_shows","magnet":"?xt=urn:btih:24a0bd4b926a124dc718b4832ff1c353d2c71b10&amp;dn=The.Borgias.S02E07.HDTV.XviD-Atilla82&amp;tr=udp%3A%2F%2Ftracker.openbittorrent.com%3A80&amp;tr=udp%3A%2F%2Fopen.demonii.com%3A1337&amp;tr=udp%3A%2F%2Ftracker.coppersurfer.tk%3A6969&amp;tr=udp%3A%2F%2Fexodus.desync.com%3A6969","seeders":1,"leechers":0,"uploader":"Atilla82","files":3,"time":1337679182,"description":"The Borgias S02E07 HDTV XviD Atilla82\n\n\nThe Borgias (2011)\n\nThe saga of a crime family in 1492 Italy.\n &lt;a href=&quot;\nhttp://www.imdb.com/title/tt1582457/&quot; rel=&quot;nofollow&quot; target=&quot;_NEW&quot;&gt;\nhttp://www.imdb.com/title/tt1582457/&lt;/a&gt; [rate:7.9/10] 8,625 votes\n \n\n\n\nlanguage: English\n\nscreenshots included in torrent\n\n\nGeneral\nComplete name : The.Borgias.S02E07.HDTV.XviD-Atilla82.avi\nFormat : AVI\nFormat/Info : Audio Video Interleave\nFile size : 401 MiB\nDuration : 51mn 55s\nOverall bit rate : 1 081 Kbps\nWriting application : Lavf52.61.0\n\nVideo\nID : 0\nFormat : MPEG-4 Visual\nFormat profile : Advanced Simple@L5\nFormat settings, BVOP : No\nFormat settings, QPel : Yes\nFormat settings, GMC : No warppoints\nFormat settings, Matrix : Default (H.263)\nCodec ID : XVID\nCodec ID/Hint : XviD\nDuration : 51mn 55s\nBit rate : 940 Kbps\nWidth : 680 pixels\nHeight : 380 pixels\nDisplay aspect ratio : 16:9\nFrame rate : 23.976 fps\nColor space : YUV\nChroma subsampling : 4:2:0\nBit depth : 8 bits\nScan type : Progressive\nCompression mode : Lossy\nBits/(Pixel*Frame) : 0.152\nStream size : 349 MiB (87%)\nWriting library : XviD 64\n\nAudio\nID : 1\nFormat : MPEG Audio\nFormat version : Version 1\nFormat profile : Layer 3\nCodec ID : 55\nCodec ID/Hint : MP3\nDuration : 51mn 55s\nBit rate mode : Constant\nBit rate : 128 Kbps\nChannel(s) : 2 channels\nSampling rate : 48.0 KHz\nCompression mode : Lossy\nStream size : 47.5 MiB (12%)\nAlignment : Aligned on interleaves\nInterleave, duration : 24 ms (0.58 video frame)\n\n\n\n\nSCREENSHOTS &lt;a href=&quot;\nhttp://www.pohrani.com/f/3S/B4/4SDpLzFB/screenshots.jpg&quot; rel=&quot;nofollow&quot; target=&quot;_NEW&quot;&gt;\nhttp://www.pohrani.com/f/3S/B4/4SDpLzFB/screenshots.jpg&lt;/a&gt;\n\n","torrent":{"xt":"urn:btih:24a0bd4b926a124dc718b4832ff1c353d2c71b10","amp;dn":"The.Borgias.S02E07.HDTV.XviD-Atilla82","amp;tr":["udp%3A%2F%2Ftracker.openbittorrent.com%3A80","udp%3A%2F%2Fopen.demonii.com%3A1337","udp%3A%2F%2Ftracker.coppersurfer.tk%3A6969","udp%3A%2F%2Fexodus.desync.com%3A6969"],"infoHash":"24a0bd4b926a124dc718b4832ff1c353d2c71b10","infoHashBuffer":{"type":"Buffer","data":[36,160,189,75,146,106,18,77,199,24,180,131,47,241,195,83,210,199,27,16]},"announce":[],"urlList":[]}}